<svg width="415" height="415" viewBox="0 0 415 415" fill="none" xmlns="http://www.w3.org/2000/svg">
<path d="M415 101.323H207.5L191.288 246.003L207.5 390.682H415V101.323Z" fill="#E1EBF0"/>
<path d="M0 101.323H207.5V390.682H0V101.323Z" fill="#FFF5F5"/>
<path d="M390.684 247.71L345.299 216.042V125.64H390.684V247.71Z" fill="#00CCB3"/>
<path d="M24.3164 234.541H195.342V293.412H24.3164V234.541Z" fill="#00EE8A"/>
<path d="M146.704 317.729H195.342V366.366H146.704V317.729Z" fill="#00EE8A"/>
<path d="M219.658 234.541H258.162V366.366H219.658V234.541Z" fill="#00CCB3"/>
<path d="M24.3164 125.64H69.7005V210.225H24.3164V125.64Z" fill="#00EE8A"/>
<path d="M24.3164 317.729H122.388V366.366H24.3164V317.729Z" fill="#00EE8A"/>
<path d="M282.479 366.366V234.541H329.318L390.684 277.361V366.366H282.479Z" fill="#00CCB3"/>
<path d="M320.982 125.64H207.5L191.288 167.932L207.5 210.225H320.982V125.64Z" fill="#00CCB3"/>
<path d="M94.017 125.64H207.5V210.225H94.017V125.64Z" fill="#00EE8A"/>
<path d="M207.5 24.318L191.288 106.118L207.5 221.796L265.34 163.957C280.142 149.154 289.298 128.704 289.298 106.117C289.298 60.9402 252.676 24.318 207.5 24.318Z" fill="#E50058"/>
<path d="M125.702 106.116C125.702 128.704 134.858 149.154 149.66 163.956L207.5 221.796V24.318C162.324 24.318 125.702 60.9402 125.702 106.116Z" fill="#FF415B"/>
<path d="M207.5 48.6344L191.288 106.118L207.5 163.601C239.196 163.601 264.983 137.814 264.983 106.118C264.983 74.4212 239.196 48.6344 207.5 48.6344Z" fill="#FF415B"/>
<path d="M150.017 106.118C150.017 137.814 175.804 163.601 207.5 163.601V48.6344C175.804 48.6344 150.017 74.4212 150.017 106.118Z" fill="#FF7C48"/>
<path d="M240.667 106.118C240.667 87.8292 225.788 72.9508 207.5 72.9508L191.288 106.118L207.5 139.284C225.788 139.284 240.667 124.406 240.667 106.118Z" fill="#E1EBF0"/>
<path d="M174.333 106.118C174.333 124.406 189.212 139.284 207.5 139.284V72.9508C189.212 72.9508 174.333 87.8292 174.333 106.118Z" fill="#FFF5F5"/>
</svg>
