<svg width="414" height="316" viewBox="0 0 414 316" fill="none" xmlns="http://www.w3.org/2000/svg">
<path d="M362.25 12.9609H51.75C23.2186 12.9609 0 30.6834 0 52.4609V263.127C0 284.904 23.2186 302.627 51.75 302.627H362.25C390.781 302.627 414 284.904 414 263.127V52.4609C414 30.6834 390.781 12.9609 362.25 12.9609Z" fill="#E1EBF0"/>
<path d="M51.75 12.9609H362.25C390.832 12.9609 414 30.6448 414 52.4609V98.5451H0V52.4609C0 30.6448 23.1681 12.9609 51.75 12.9609Z" fill="#00EE8A"/>
<path d="M224.249 124.877H284.625V157.795H224.249V124.877Z" fill="white"/>
<path d="M129.375 124.877H189.751V157.795H129.375V124.877Z" fill="white"/>
<path d="M34.501 124.877H94.8739V157.795H34.501V124.877Z" fill="white"/>
<path d="M34.501 184.127H94.8739V217.045H34.501V184.127Z" fill="white"/>
<path d="M129.375 184.127H189.751V217.045H129.375V184.127Z" fill="white"/>
<path d="M129.375 243.377H189.751V276.295H129.375V243.377Z" fill="white"/>
<path d="M224.249 243.377H284.625V276.295H224.249V243.377Z" fill="white"/>
<path d="M224.249 184.127H284.625V217.045H224.249V184.127Z" fill="white"/>
<path d="M319.126 184.127H379.499V217.045H319.126V184.127Z" fill="white"/>
<path d="M319.126 124.877H379.499V157.795H319.126V124.877Z" fill="white"/>
<path d="M34.501 263.127V243.377H94.8739V276.295H51.7499C42.2458 276.295 34.501 270.384 34.501 263.127Z" fill="white"/>
<path d="M362.25 276.295H319.126V243.377H379.499V263.127C379.499 270.384 371.754 276.295 362.25 276.295Z" fill="white"/>
</svg>
